<svg width="180" height="68" viewBox="0 0 180 68" fill="none" xmlns="http://www.w3.org/2000/svg">
<rect width="180" height="68" rx="10" fill="url(#paint0_linear_1_485)"/>
<path d="M58.6479 36.7046C58.6479 37.7837 58.2578 38.6304 57.4775 39.2446C56.6973 39.8589 55.6209 40.166 54.2485 40.166C52.8761 40.166 51.7528 39.953 50.8784 39.5269V37.6509C51.4318 37.911 52.0184 38.1157 52.6382 38.2651C53.2635 38.4146 53.8446 38.4893 54.3813 38.4893C55.1672 38.4893 55.7454 38.3398 56.1162 38.041C56.4925 37.7422 56.6807 37.341 56.6807 36.8374C56.6807 36.3836 56.5091 35.999 56.166 35.6836C55.8229 35.3682 55.1146 34.9946 54.041 34.563C52.9342 34.1147 52.154 33.6029 51.7002 33.0273C51.2464 32.4518 51.0195 31.7601 51.0195 30.9521C51.0195 29.9395 51.3792 29.1426 52.0986 28.5615C52.818 27.9805 53.7837 27.6899 54.9956 27.6899C56.1577 27.6899 57.3143 27.9445 58.4653 28.4536L57.8345 30.0723C56.7554 29.6185 55.7925 29.3916 54.9458 29.3916C54.3039 29.3916 53.8169 29.5327 53.4849 29.8149C53.1528 30.0916 52.9868 30.4596 52.9868 30.9189C52.9868 31.2344 53.0532 31.5055 53.186 31.7324C53.3188 31.9538 53.5374 32.1641 53.8418 32.3633C54.1462 32.5625 54.694 32.8254 55.4854 33.1519C56.3763 33.5226 57.0293 33.8685 57.4443 34.1895C57.8594 34.5104 58.1637 34.8729 58.3574 35.2769C58.5511 35.6808 58.6479 36.1567 58.6479 36.7046ZM67.2642 40L66.9902 38.7964H66.8906C66.6195 39.2225 66.2321 39.5573 65.7285 39.8008C65.2305 40.0443 64.6605 40.166 64.0186 40.166C62.9062 40.166 62.0762 39.8893 61.5283 39.3359C60.9805 38.7826 60.7065 37.9442 60.7065 36.8208V30.8193H62.6738V36.4805C62.6738 37.1833 62.8177 37.7118 63.1055 38.0659C63.3932 38.4146 63.8442 38.5889 64.4585 38.5889C65.2775 38.5889 65.8779 38.3454 66.2598 37.8584C66.6471 37.3659 66.8408 36.5441 66.8408 35.3931V30.8193H68.7998V40H67.2642ZM76.2705 30.6533C77.416 30.6533 78.307 31.0684 78.9434 31.8984C79.5853 32.7285 79.9062 33.8934 79.9062 35.3931C79.9062 36.8983 79.5825 38.0715 78.9351 38.9126C78.2876 39.7482 77.3883 40.166 76.2373 40.166C75.0752 40.166 74.1732 39.7482 73.5312 38.9126H73.3984L73.0415 40H71.5806V27.084H73.5312V30.1553C73.5312 30.3822 73.5202 30.7197 73.498 31.168C73.4759 31.6162 73.4593 31.9012 73.4482 32.0229H73.5312C74.151 31.1099 75.0641 30.6533 76.2705 30.6533ZM75.7642 32.2471C74.9784 32.2471 74.4111 32.4795 74.0625 32.9443C73.7194 33.4036 73.5423 34.1756 73.5312 35.2603V35.3931C73.5312 36.5109 73.7083 37.3216 74.0625 37.8252C74.4167 38.3232 74.995 38.5723 75.7974 38.5723C76.4891 38.5723 77.012 38.2983 77.3662 37.7505C77.7259 37.2026 77.9058 36.4113 77.9058 35.3765C77.9058 33.2902 77.1919 32.2471 75.7642 32.2471ZM88.3398 37.3853C88.3398 38.2817 88.0133 38.9707 87.3604 39.4521C86.7074 39.9281 85.7721 40.166 84.5547 40.166C83.3317 40.166 82.3494 39.9806 81.6079 39.6099V37.9248C82.687 38.4229 83.6914 38.6719 84.6211 38.6719C85.8219 38.6719 86.4224 38.3094 86.4224 37.5845C86.4224 37.3521 86.356 37.1584 86.2231 37.0034C86.0903 36.8485 85.8717 36.688 85.5674 36.522C85.263 36.356 84.8397 36.1678 84.2974 35.9575C83.2404 35.548 82.5238 35.1385 82.1475 34.729C81.7767 34.3195 81.5913 33.7882 81.5913 33.1353C81.5913 32.3494 81.9067 31.7407 82.5376 31.3091C83.174 30.8719 84.0373 30.6533 85.1274 30.6533C86.2065 30.6533 87.2275 30.8719 88.1904 31.3091L87.5596 32.7783C86.569 32.3688 85.7362 32.1641 85.061 32.1641C84.0317 32.1641 83.5171 32.4574 83.5171 33.0439C83.5171 33.3317 83.6499 33.5752 83.9155 33.7744C84.1867 33.9736 84.7733 34.2476 85.6753 34.5962C86.4334 34.8895 86.984 35.1579 87.3271 35.4014C87.6702 35.6449 87.9248 35.9271 88.0908 36.248C88.2568 36.5635 88.3398 36.9425 88.3398 37.3853ZM94.1587 40.166C92.7697 40.166 91.7127 39.762 90.9878 38.9541C90.2684 38.1406 89.9087 36.9757 89.9087 35.4595C89.9087 33.9155 90.285 32.7285 91.0376 31.8984C91.7957 31.0684 92.8887 30.6533 94.3164 30.6533C95.2848 30.6533 96.1564 30.8332 96.9312 31.1929L96.3418 32.7617C95.5173 32.4408 94.8366 32.2803 94.2998 32.2803C92.7116 32.2803 91.9175 33.3345 91.9175 35.4429C91.9175 36.4722 92.1139 37.2469 92.5068 37.7671C92.9053 38.2817 93.4863 38.5391 94.25 38.5391C95.1188 38.5391 95.9406 38.3232 96.7153 37.8916V39.5933C96.3667 39.798 95.9932 39.9447 95.5947 40.0332C95.2018 40.1217 94.7231 40.166 94.1587 40.166ZM103.53 30.6533C103.923 30.6533 104.247 30.681 104.501 30.7363L104.311 32.5542C104.034 32.4878 103.746 32.4546 103.447 32.4546C102.667 32.4546 102.033 32.7091 101.546 33.2183C101.065 33.7274 100.824 34.3887 100.824 35.2021V40H98.8735V30.8193H100.401L100.658 32.438H100.758C101.062 31.8901 101.458 31.4557 101.945 31.1348C102.437 30.8138 102.966 30.6533 103.53 30.6533ZM108.162 40H106.211V30.8193H108.162V40ZM106.095 28.3872C106.095 28.0386 106.189 27.7702 106.377 27.582C106.571 27.3939 106.845 27.2998 107.199 27.2998C107.542 27.2998 107.808 27.3939 107.996 27.582C108.19 27.7702 108.287 28.0386 108.287 28.3872C108.287 28.7192 108.19 28.9821 107.996 29.1758C107.808 29.3639 107.542 29.458 107.199 29.458C106.845 29.458 106.571 29.3639 106.377 29.1758C106.189 28.9821 106.095 28.7192 106.095 28.3872ZM115.649 30.6533C116.795 30.6533 117.686 31.0684 118.322 31.8984C118.964 32.7285 119.285 33.8934 119.285 35.3931C119.285 36.8983 118.961 38.0715 118.314 38.9126C117.667 39.7482 116.767 40.166 115.616 40.166C114.454 40.166 113.552 39.7482 112.91 38.9126H112.777L112.42 40H110.959V27.084H112.91V30.1553C112.91 30.3822 112.899 30.7197 112.877 31.168C112.855 31.6162 112.838 31.9012 112.827 32.0229H112.91C113.53 31.1099 114.443 30.6533 115.649 30.6533ZM115.143 32.2471C114.357 32.2471 113.79 32.4795 113.441 32.9443C113.098 33.4036 112.921 34.1756 112.91 35.2603V35.3931C112.91 36.5109 113.087 37.3216 113.441 37.8252C113.796 38.3232 114.374 38.5723 115.176 38.5723C115.868 38.5723 116.391 38.2983 116.745 37.7505C117.105 37.2026 117.285 36.4113 117.285 35.3765C117.285 33.2902 116.571 32.2471 115.143 32.2471ZM125.561 40.166C124.133 40.166 123.015 39.751 122.207 38.9209C121.405 38.0853 121.003 36.937 121.003 35.4761C121.003 33.9764 121.377 32.7977 122.124 31.9399C122.871 31.0822 123.898 30.6533 125.204 30.6533C126.416 30.6533 127.373 31.0213 128.076 31.7573C128.778 32.4933 129.13 33.506 129.13 34.7954V35.8496H123.012C123.04 36.7406 123.281 37.4268 123.734 37.9082C124.188 38.3841 124.827 38.6221 125.652 38.6221C126.194 38.6221 126.698 38.5723 127.163 38.4727C127.633 38.3675 128.137 38.196 128.673 37.958V39.5435C128.197 39.7703 127.716 39.9308 127.229 40.0249C126.742 40.119 126.186 40.166 125.561 40.166ZM125.204 32.1309C124.584 32.1309 124.086 32.3273 123.709 32.7202C123.339 33.1131 123.117 33.6859 123.045 34.4385H127.212C127.201 33.6803 127.019 33.1076 126.665 32.7202C126.31 32.3273 125.823 32.1309 125.204 32.1309Z" fill="white"/>
<defs>
<linearGradient id="paint0_linear_1_485" x1="90" y1="0" x2="90" y2="68" gradientUnits="userSpaceOnUse">
<stop stop-color="#FF946D"/>
<stop offset="1" stop-color="#FF7D68"/>
</linearGradient>
</defs>
</svg>
